<svg width="18" height="13" viewBox="0 0 18 13" fill="none" xmlns="http://www.w3.org/2000/svg">
<path d="M17.7364 1.67392L6.73642 12.6739C6.67257 12.7378 6.59675 12.7886 6.51329 12.8232C6.42983 12.8578 6.34036 12.8756 6.25002 12.8756C6.15967 12.8756 6.07021 12.8578 5.98674 12.8232C5.90328 12.7886 5.82746 12.7378 5.76361 12.6739L0.95111 7.86142C0.822107 7.73242 0.749634 7.55745 0.749634 7.37502C0.749634 7.19258 0.822107 7.01761 0.95111 6.88861C1.08011 6.75961 1.25508 6.68713 1.43752 6.68713C1.61995 6.68713 1.79492 6.75961 1.92392 6.88861L6.25002 11.2156L16.7636 0.701109C16.8926 0.572107 17.0676 0.499634 17.25 0.499634C17.4325 0.499634 17.6074 0.572107 17.7364 0.701109C17.8654 0.830112 17.9379 1.00508 17.9379 1.18752C17.9379 1.36995 17.8654 1.54492 17.7364 1.67392Z" fill="#9E78CF"/>
</svg>
