<svg width="79" height="79" viewBox="0 0 79 79" fill="none" xmlns="http://www.w3.org/2000/svg">
<g clip-path="url(#clip0_2117_19)">
<path d="M76.6793 13.4794C79.7653 10.3935 79.7653 5.3819 76.6793 2.29596C73.5934 -0.789978 68.5818 -0.789978 65.4959 2.29596L39.5 28.3166L13.4793 2.32065C10.3934 -0.765291 5.38184 -0.765291 2.2959 2.32065C-0.790039 5.40658 -0.790039 10.4181 2.2959 13.5041L28.3165 39.5L2.32059 65.5206C-0.765351 68.6066 -0.765351 73.6182 2.32059 76.7041C5.40652 79.79 10.4181 79.79 13.504 76.7041L39.5 50.6835L65.5206 76.6794C68.6065 79.7653 73.6181 79.7653 76.704 76.6794C79.79 73.5935 79.79 68.5819 76.704 65.496L50.6834 39.5L76.6793 13.4794Z" fill="#9E78CF"/>
</g>
<defs>
<clipPath id="clip0_2117_19">
<rect width="79" height="79" fill="white"/>
</clipPath>
</defs>
</svg>
